<svg width="297" height="227" viewBox="0 0 297 227" fill="none" xmlns="http://www.w3.org/2000/svg">
<path d="M45.432 0.00100708C45.424 0.00100708 45.415 0.00100708 45.407 0.00100708C42.598 0.00100708 39.956 1.09601 37.961 3.08601C35.944 5.09801 34.833 7.77701 34.833 10.629V169.994C34.833 175.838 39.606 180.604 45.474 180.619C70.212 180.678 111.658 185.834 140.25 215.755V48.975C140.25 46.994 139.744 45.133 138.789 43.593C115.322 5.80101 70.226 0.0590071 45.432 0.00100708Z" fill="white"/>
<path d="M262.167 169.994V10.628C262.167 7.776 261.056 5.097 259.039 3.085C257.044 1.095 254.4 0 251.594 0C251.585 0 251.576 0 251.568 0C226.775 0.059 181.679 5.801 158.211 43.593C157.256 45.133 156.751 46.994 156.751 48.975V215.754C185.343 185.833 226.789 180.677 251.527 180.618C257.394 180.603 262.167 175.837 262.167 169.994Z" fill="white"/>
<path d="M286.373 36.753H278.667V169.994C278.667 184.915 266.51 197.082 251.566 197.119C230.583 197.169 195.985 201.272 171.482 224.463C213.86 214.087 258.534 220.832 283.994 226.634C287.173 227.358 290.458 226.61 293.005 224.58C295.543 222.555 296.999 219.528 296.999 216.279V47.379C297 41.52 292.232 36.753 286.373 36.753Z" fill="white"/>
<path d="M18.332 169.994V36.753H10.626C4.768 36.753 0 41.52 0 47.379V216.276C0 219.526 1.456 222.552 3.994 224.577C6.539 226.606 9.821 227.357 13.005 226.631C38.465 220.828 83.14 214.084 125.516 224.46C101.014 201.27 66.416 197.168 45.433 197.118C30.49 197.082 18.332 184.915 18.332 169.994Z" fill="white"/>
</svg>
