<svg width="269" height="269" viewBox="0 0 269 269" fill="none" xmlns="http://www.w3.org/2000/svg">
<path fill-rule="evenodd" clip-rule="evenodd" d="M267.917 119.461C267.492 115.683 263.087 112.844 259.278 112.844C246.963 112.844 236.035 105.613 231.452 94.4298C226.77 82.9758 229.789 69.6178 238.967 61.1988C241.856 58.5578 242.207 54.1368 239.784 51.0658C233.481 43.0618 226.317 35.8318 218.495 29.5658C215.432 27.1078 210.938 27.4498 208.282 30.3908C200.272 39.2618 185.884 42.5588 174.766 37.9198C163.196 33.0528 155.9 21.3288 156.614 8.7438C156.849 4.7908 153.96 1.3538 150.019 0.894804C139.981 -0.266196 129.855 -0.302196 119.787 0.814804C115.891 1.2448 113.002 4.6008 113.133 8.5038C113.571 20.9648 106.187 32.4838 94.7322 37.1758C83.7472 41.6628 69.4602 38.3938 61.4662 29.6018C58.8242 26.7058 54.4032 26.3498 51.3252 28.7488C43.2712 35.0678 35.9462 42.3038 29.5852 50.2418C27.1042 53.3278 27.4692 57.8008 30.3872 60.4558C39.7402 68.9258 42.7602 82.3998 37.9012 93.9858C33.2622 105.032 21.7922 112.151 8.66121 112.151C4.40021 112.014 1.36521 114.874 0.899209 118.748C-0.282791 128.844 -0.296791 139.131 0.841209 149.309C1.26321 153.103 5.80221 155.917 9.65321 155.917C21.3552 155.618 32.5902 162.863 37.3032 174.332C42.0012 185.786 38.9812 199.136 29.7892 207.562C26.9142 210.203 26.5492 214.617 28.9722 217.688C35.2162 225.641 42.3812 232.878 50.2312 239.196C53.3102 241.677 57.7902 241.327 60.4592 238.386C68.4992 229.493 82.8862 226.202 93.9602 230.85C105.559 235.702 112.855 247.425 112.141 260.017C111.908 263.972 114.811 267.415 118.736 267.867C123.871 268.466 129.037 268.765 134.217 268.765C139.134 268.765 144.052 268.495 148.969 267.948C152.866 267.518 155.753 264.162 155.622 260.252C155.171 247.798 162.568 236.279 174.008 231.595C185.067 227.078 199.294 230.384 207.289 239.167C209.946 242.057 214.336 242.406 217.431 240.015C225.47 233.711 232.78 226.481 239.171 218.521C241.651 215.442 241.301 210.962 238.368 208.308C229.015 199.838 225.98 186.362 230.839 174.784C235.407 163.885 246.451 156.567 258.33 156.567L259.992 156.61C263.845 156.923 267.39 153.955 267.857 150.022C269.041 139.917 269.055 129.639 267.917 119.461ZM134.592 179.491C109.874 179.491 89.7682 159.385 89.7682 134.667C89.7682 109.95 109.874 89.8428 134.592 89.8428C159.309 89.8428 179.415 109.95 179.415 134.667C179.415 159.385 159.309 179.491 134.592 179.491Z" fill="#0091D7"/>
</svg>
